<?xml version="1.0" encoding="utf-8"?>
<!-- Generator: Adobe Illustrator 21.1.0, SVG Export Plug-In . SVG Version: 6.00 Build 0)  -->
<svg version="1.1" id="Layer_1" xmlns="http://www.w3.org/2000/svg" xmlns:xlink="http://www.w3.org/1999/xlink" x="0px" y="0px"
	 viewBox="0 0 1400 1400" style="enable-background:new 0 0 1400 1400;" xml:space="preserve">
<style type="text/css">
	.st0{fill:url(#SVGID_1_);}
	.st1{fill:url(#SVGID_2_);}
	.st2{opacity:0.3;fill:#262324;}
	.st3{opacity:0.6;fill:#262324;}
	.st4{fill:#FFFFFF;}
	.st5{opacity:0.4;}
	.st6{fill:#7B097E;}
	.st7{font-family:'MyriadPro-Regular';}
	.st8{font-size:357.071px;}
	.st9{fill:#7F7F7F;}
	.st10{font-size:166.391px;}
</style>
<g>
	<g>
		<linearGradient id="SVGID_1_" gradientUnits="userSpaceOnUse" x1="97.6805" y1="1292.9967" x2="1384.593" y2="-91.9587">
			<stop  offset="0" style="stop-color:#99989D"/>
			<stop  offset="1" style="stop-color:#D7D8DC"/>
		</linearGradient>
		<path class="st0" d="M399.1,37.5c138.3-151.5,933.8,334.5,970.7,665.9c36.8,331.4-793.1,856.3-1031.2,632.8
			C132,1142.3,23.5,449.2,399.1,37.5z"/>
		<linearGradient id="SVGID_2_" gradientUnits="userSpaceOnUse" x1="-177.1514" y1="1467.1598" x2="1046.0913" y2="256.7236">
			<stop  offset="0" style="stop-color:#2C498A"/>
			<stop  offset="0.119" style="stop-color:#3F4789"/>
			<stop  offset="0.7261" style="stop-color:#9B4085"/>
			<stop  offset="1" style="stop-color:#C03D84"/>
		</linearGradient>
		<path class="st1" d="M696.4,1353.5C497.1,1388.2-56.1,711.8,34.5,433.6c90.6-278.2,717.8-396,1113.1-158
			C1571.8,531,1034.2,1294.7,696.4,1353.5z"/>
		<g>
			<path class="st2" d="M1020.6,399.8c223.3,96.3,95.7,610.7-67.1,738.2c-171.5,134.2-738.2,74.6-761.6-426.3
				C181.3,484.2,536.1,190.8,1020.6,399.8z"/>
			<path class="st3" d="M1020.6,376.8c223.3,96.3,95.7,610.7-67.1,738.2c-171.5,134.2-738.2,74.6-761.6-426.3
				C181.3,461.2,536.1,167.8,1020.6,376.8z"/>
			<path class="st4" d="M1020.6,349c223.3,96.3,95.7,610.7-67.1,738.2c-171.5,134.2-738.2,74.6-761.6-426.3
				C181.3,433.5,536.1,140,1020.6,349z"/>
			<path class="st4" d="M1020.6,334.5c223.3,96.3,95.7,610.7-67.1,738.2c-171.5,134.2-738.2,74.6-761.6-426.3
				C181.3,419,536.1,125.5,1020.6,334.5z"/>
			<g class="st5">
				<path class="st4" d="M725.7,1136.3c-127,0-253.6-40.6-347.4-111.4c-115.7-87.4-180.8-218.2-188.3-378.4
					c-3.5-73.9,31.8-155.3,96.8-223.4c98.2-102.9,247.4-161.9,409.5-161.9c105.3,0,214.6,24.1,324.8,71.7
					c64.3,27.7,104.7,92.7,117,187.8c24.2,187.8-66.8,461.9-183.7,553.4C904.1,1113.6,820.6,1136.3,725.7,1136.3z M696.5,264.8
					c-161.1,0-309.4,58.6-406.9,160.7c-64.3,67.4-99.2,147.9-95.8,220.8c15.7,336,278.5,486.4,532,486.4
					c94.2,0,176.8-22.4,226.7-61.4c116.1-90.9,206.5-363.4,182.4-550.1c-12.1-93.8-51.8-157.8-114.9-185
					C910.1,288.8,801.3,264.8,696.5,264.8z"/>
			</g>
		</g>
	</g>
</g>
<text transform="matrix(1 0 0 1 257.7422 832.8711)"><tspan x="0" y="0" class="st6 st7 st8">SIEC</tspan><tspan x="644.1" y="0" class="st9 st7 st10">pb</tspan></text>
</svg>
